<mxfile host="app.diagrams.net" agent="Mozilla/5.0 (Windows NT 10.0; Win64; x64) AppleWebKit/537.36 (KHTML, like Gecko) Chrome/129.0.0.0 Safari/537.36" version="24.7.17">
  <diagram name="Страница — 1" id="n3kLdFcGJUZQLhVxyDTe">
    <mxGraphModel dx="993" dy="558" grid="1" gridSize="10" guides="1" tooltips="1" connect="1" arrows="1" fold="1" page="1" pageScale="1" pageWidth="827" pageHeight="1169" math="0" shadow="0">
      <root>
        <mxCell id="0" />
        <mxCell id="1" parent="0" />
        <mxCell id="W9a4rOh1Q9RHWRytVCQV-1" value="" style="rounded=1;whiteSpace=wrap;html=1;" vertex="1" parent="1">
          <mxGeometry x="40" y="40" width="120" height="250" as="geometry" />
        </mxCell>
        <mxCell id="W9a4rOh1Q9RHWRytVCQV-2" value="Поиск дешёвых&lt;div&gt;авиабилетов&lt;/div&gt;" style="text;html=1;align=center;verticalAlign=middle;resizable=0;points=[];autosize=1;strokeColor=none;fillColor=none;" vertex="1" parent="1">
          <mxGeometry x="45" y="50" width="110" height="40" as="geometry" />
        </mxCell>
        <mxCell id="W9a4rOh1Q9RHWRytVCQV-3" value="" style="rounded=1;whiteSpace=wrap;html=1;" vertex="1" parent="1">
          <mxGeometry x="47.5" y="90" width="105" height="60" as="geometry" />
        </mxCell>
        <mxCell id="W9a4rOh1Q9RHWRytVCQV-6" value="" style="endArrow=none;html=1;rounded=0;entryX=1;entryY=0.5;entryDx=0;entryDy=0;" edge="1" parent="1" target="W9a4rOh1Q9RHWRytVCQV-3">
          <mxGeometry width="50" height="50" relative="1" as="geometry">
            <mxPoint x="47.5" y="120" as="sourcePoint" />
            <mxPoint x="97.5" y="70" as="targetPoint" />
          </mxGeometry>
        </mxCell>
        <mxCell id="W9a4rOh1Q9RHWRytVCQV-7" value="откуда" style="text;html=1;align=center;verticalAlign=middle;resizable=0;points=[];autosize=1;strokeColor=none;fillColor=none;" vertex="1" parent="1">
          <mxGeometry x="40" y="90" width="60" height="30" as="geometry" />
        </mxCell>
        <mxCell id="W9a4rOh1Q9RHWRytVCQV-8" value="куда" style="text;html=1;align=center;verticalAlign=middle;resizable=0;points=[];autosize=1;strokeColor=none;fillColor=none;" vertex="1" parent="1">
          <mxGeometry x="40" y="120" width="50" height="30" as="geometry" />
        </mxCell>
        <mxCell id="W9a4rOh1Q9RHWRytVCQV-10" value="" style="rounded=1;whiteSpace=wrap;html=1;fillColor=#f8cecc;strokeColor=#b85450;" vertex="1" parent="1">
          <mxGeometry x="47.5" y="160" width="105" height="20" as="geometry" />
        </mxCell>
        <mxCell id="W9a4rOh1Q9RHWRytVCQV-11" value="пока не знаю" style="text;html=1;align=center;verticalAlign=middle;resizable=0;points=[];autosize=1;strokeColor=none;fillColor=none;" vertex="1" parent="1">
          <mxGeometry x="47.5" y="155" width="100" height="30" as="geometry" />
        </mxCell>
        <mxCell id="W9a4rOh1Q9RHWRytVCQV-12" value="Горячие билеты" style="rounded=1;whiteSpace=wrap;html=1;" vertex="1" parent="1">
          <mxGeometry x="47.5" y="190" width="105" height="90" as="geometry" />
        </mxCell>
        <mxCell id="W9a4rOh1Q9RHWRytVCQV-13" value="" style="rounded=1;whiteSpace=wrap;html=1;" vertex="1" parent="1">
          <mxGeometry x="230" y="40" width="120" height="250" as="geometry" />
        </mxCell>
        <mxCell id="W9a4rOh1Q9RHWRytVCQV-15" value="" style="endArrow=classic;html=1;rounded=0;entryX=-0.001;entryY=0.522;entryDx=0;entryDy=0;entryPerimeter=0;fillColor=#f8cecc;strokeColor=#b85450;" edge="1" parent="1" target="W9a4rOh1Q9RHWRytVCQV-13">
          <mxGeometry width="50" height="50" relative="1" as="geometry">
            <mxPoint x="152.5" y="170" as="sourcePoint" />
            <mxPoint x="202.5" y="120" as="targetPoint" />
          </mxGeometry>
        </mxCell>
        <mxCell id="W9a4rOh1Q9RHWRytVCQV-16" value="назад" style="text;html=1;align=center;verticalAlign=middle;resizable=0;points=[];autosize=1;strokeColor=none;fillColor=none;fontColor=#3333FF;" vertex="1" parent="1">
          <mxGeometry x="220" y="40" width="60" height="30" as="geometry" />
        </mxCell>
        <mxCell id="W9a4rOh1Q9RHWRytVCQV-17" value="" style="endArrow=classic;html=1;rounded=0;entryX=1;entryY=0.12;entryDx=0;entryDy=0;entryPerimeter=0;exitX=-0.004;exitY=0.068;exitDx=0;exitDy=0;exitPerimeter=0;fontColor=#3333FF;fillColor=#dae8fc;strokeColor=#6c8ebf;" edge="1" parent="1" source="W9a4rOh1Q9RHWRytVCQV-13" target="W9a4rOh1Q9RHWRytVCQV-1">
          <mxGeometry width="50" height="50" relative="1" as="geometry">
            <mxPoint x="164" y="120" as="sourcePoint" />
            <mxPoint x="214" y="70" as="targetPoint" />
          </mxGeometry>
        </mxCell>
        <mxCell id="W9a4rOh1Q9RHWRytVCQV-18" value="" style="rounded=1;whiteSpace=wrap;html=1;" vertex="1" parent="1">
          <mxGeometry x="237.5" y="70" width="105" height="80" as="geometry" />
        </mxCell>
        <mxCell id="W9a4rOh1Q9RHWRytVCQV-19" value="даты отпуска" style="text;html=1;align=center;verticalAlign=middle;resizable=0;points=[];autosize=1;strokeColor=none;fillColor=none;fontSize=11;" vertex="1" parent="1">
          <mxGeometry x="242.5" y="66" width="90" height="30" as="geometry" />
        </mxCell>
        <mxCell id="W9a4rOh1Q9RHWRytVCQV-20" value="" style="endArrow=none;html=1;rounded=0;entryX=1;entryY=0.5;entryDx=0;entryDy=0;" edge="1" parent="1">
          <mxGeometry width="50" height="50" relative="1" as="geometry">
            <mxPoint x="237" y="90" as="sourcePoint" />
            <mxPoint x="342.5" y="90" as="targetPoint" />
          </mxGeometry>
        </mxCell>
        <mxCell id="W9a4rOh1Q9RHWRytVCQV-22" value="" style="endArrow=none;html=1;rounded=0;entryX=1;entryY=0.5;entryDx=0;entryDy=0;" edge="1" parent="1">
          <mxGeometry width="50" height="50" relative="1" as="geometry">
            <mxPoint x="237" y="120" as="sourcePoint" />
            <mxPoint x="342.5" y="120" as="targetPoint" />
          </mxGeometry>
        </mxCell>
        <mxCell id="W9a4rOh1Q9RHWRytVCQV-23" value="от" style="text;html=1;align=center;verticalAlign=middle;resizable=0;points=[];autosize=1;strokeColor=none;fillColor=none;fontSize=11;" vertex="1" parent="1">
          <mxGeometry x="235" y="90" width="30" height="30" as="geometry" />
        </mxCell>
        <mxCell id="W9a4rOh1Q9RHWRytVCQV-24" value="до" style="text;html=1;align=center;verticalAlign=middle;resizable=0;points=[];autosize=1;strokeColor=none;fillColor=none;fontSize=11;" vertex="1" parent="1">
          <mxGeometry x="230" y="120" width="40" height="30" as="geometry" />
        </mxCell>
        <mxCell id="W9a4rOh1Q9RHWRytVCQV-25" value="" style="rounded=1;whiteSpace=wrap;html=1;" vertex="1" parent="1">
          <mxGeometry x="237.5" y="155" width="105" height="50" as="geometry" />
        </mxCell>
        <mxCell id="W9a4rOh1Q9RHWRytVCQV-26" value="бюджет на билеты" style="text;html=1;align=center;verticalAlign=middle;resizable=0;points=[];autosize=1;strokeColor=none;fillColor=none;fontSize=11;" vertex="1" parent="1">
          <mxGeometry x="230" y="155" width="120" height="30" as="geometry" />
        </mxCell>
        <mxCell id="W9a4rOh1Q9RHWRytVCQV-27" value="" style="endArrow=none;html=1;rounded=0;entryX=1;entryY=0.5;entryDx=0;entryDy=0;" edge="1" parent="1">
          <mxGeometry width="50" height="50" relative="1" as="geometry">
            <mxPoint x="237.5" y="185" as="sourcePoint" />
            <mxPoint x="343" y="185" as="targetPoint" />
          </mxGeometry>
        </mxCell>
        <mxCell id="W9a4rOh1Q9RHWRytVCQV-28" value="" style="rounded=1;whiteSpace=wrap;html=1;" vertex="1" parent="1">
          <mxGeometry x="237.5" y="210" width="105" height="50" as="geometry" />
        </mxCell>
        <mxCell id="W9a4rOh1Q9RHWRytVCQV-29" value="" style="endArrow=none;html=1;rounded=0;entryX=1;entryY=0.5;entryDx=0;entryDy=0;" edge="1" parent="1">
          <mxGeometry width="50" height="50" relative="1" as="geometry">
            <mxPoint x="237.5" y="234.68" as="sourcePoint" />
            <mxPoint x="343" y="234.68" as="targetPoint" />
          </mxGeometry>
        </mxCell>
        <mxCell id="W9a4rOh1Q9RHWRytVCQV-30" value="виза" style="text;html=1;align=center;verticalAlign=middle;resizable=0;points=[];autosize=1;strokeColor=none;fillColor=none;fontSize=11;" vertex="1" parent="1">
          <mxGeometry x="265" y="207" width="50" height="30" as="geometry" />
        </mxCell>
        <mxCell id="W9a4rOh1Q9RHWRytVCQV-31" value="&lt;font color=&quot;#999999&quot;&gt;28-10-2024&lt;/font&gt;" style="text;html=1;align=center;verticalAlign=middle;resizable=0;points=[];autosize=1;strokeColor=none;fillColor=none;fontSize=11;" vertex="1" parent="1">
          <mxGeometry x="257.5" y="90" width="80" height="30" as="geometry" />
        </mxCell>
        <mxCell id="W9a4rOh1Q9RHWRytVCQV-32" value="&lt;font color=&quot;#999999&quot;&gt;04-11-2024&lt;/font&gt;" style="text;html=1;align=center;verticalAlign=middle;resizable=0;points=[];autosize=1;strokeColor=none;fillColor=none;fontSize=11;" vertex="1" parent="1">
          <mxGeometry x="257.5" y="120" width="80" height="30" as="geometry" />
        </mxCell>
        <mxCell id="W9a4rOh1Q9RHWRytVCQV-33" value="&lt;font color=&quot;#999999&quot;&gt;30000 руб.&lt;/font&gt;" style="text;html=1;align=center;verticalAlign=middle;resizable=0;points=[];autosize=1;strokeColor=none;fillColor=none;fontSize=11;" vertex="1" parent="1">
          <mxGeometry x="250" y="179" width="80" height="30" as="geometry" />
        </mxCell>
        <mxCell id="W9a4rOh1Q9RHWRytVCQV-34" value="&lt;font color=&quot;#999999&quot;&gt;нет&lt;/font&gt;" style="text;html=1;align=center;verticalAlign=middle;resizable=0;points=[];autosize=1;strokeColor=none;fillColor=none;fontSize=11;" vertex="1" parent="1">
          <mxGeometry x="267.5" y="231" width="40" height="30" as="geometry" />
        </mxCell>
        <mxCell id="W9a4rOh1Q9RHWRytVCQV-35" value="дальше" style="text;html=1;align=center;verticalAlign=middle;resizable=0;points=[];autosize=1;strokeColor=none;fillColor=none;fontColor=#FF3333;" vertex="1" parent="1">
          <mxGeometry x="255" y="260" width="70" height="30" as="geometry" />
        </mxCell>
        <mxCell id="W9a4rOh1Q9RHWRytVCQV-36" value="" style="rounded=1;whiteSpace=wrap;html=1;" vertex="1" parent="1">
          <mxGeometry x="420" y="40" width="120" height="250" as="geometry" />
        </mxCell>
        <mxCell id="W9a4rOh1Q9RHWRytVCQV-37" value="назад" style="text;html=1;align=center;verticalAlign=middle;resizable=0;points=[];autosize=1;strokeColor=none;fillColor=none;fontColor=#3333FF;" vertex="1" parent="1">
          <mxGeometry x="410" y="40" width="60" height="30" as="geometry" />
        </mxCell>
        <mxCell id="W9a4rOh1Q9RHWRytVCQV-38" value="" style="endArrow=classic;html=1;rounded=0;entryX=0.999;entryY=0.073;entryDx=0;entryDy=0;entryPerimeter=0;exitX=0.167;exitY=0.5;exitDx=0;exitDy=0;exitPerimeter=0;fillColor=#dae8fc;strokeColor=#6c8ebf;" edge="1" parent="1" source="W9a4rOh1Q9RHWRytVCQV-37" target="W9a4rOh1Q9RHWRytVCQV-13">
          <mxGeometry width="50" height="50" relative="1" as="geometry">
            <mxPoint x="440" y="57" as="sourcePoint" />
            <mxPoint x="370" y="70" as="targetPoint" />
          </mxGeometry>
        </mxCell>
        <mxCell id="W9a4rOh1Q9RHWRytVCQV-39" value="" style="endArrow=classic;html=1;rounded=0;entryX=0;entryY=0.88;entryDx=0;entryDy=0;entryPerimeter=0;fillColor=#f8cecc;strokeColor=#b85450;" edge="1" parent="1" target="W9a4rOh1Q9RHWRytVCQV-36">
          <mxGeometry width="50" height="50" relative="1" as="geometry">
            <mxPoint x="315" y="274.5" as="sourcePoint" />
            <mxPoint x="392.5" y="275.5" as="targetPoint" />
          </mxGeometry>
        </mxCell>
        <mxCell id="W9a4rOh1Q9RHWRytVCQV-40" value="Предлагаемые&lt;div style=&quot;font-size: 11px;&quot;&gt;варианты:&lt;/div&gt;" style="rounded=1;whiteSpace=wrap;html=1;fontSize=11;" vertex="1" parent="1">
          <mxGeometry x="427.5" y="66" width="105" height="34" as="geometry" />
        </mxCell>
        <mxCell id="W9a4rOh1Q9RHWRytVCQV-41" value="&lt;b&gt;Южно-Сахалинск&lt;/b&gt;&lt;div style=&quot;font-size: 10px;&quot;&gt;&lt;b&gt;25670 руб.&lt;/b&gt;&lt;/div&gt;&lt;div style=&quot;font-size: 9px;&quot;&gt;&lt;font style=&quot;font-size: 9px;&quot;&gt;26-10-2024 10:05&amp;nbsp;&lt;/font&gt;&lt;/div&gt;&lt;div style=&quot;font-size: 9px;&quot;&gt;&lt;font style=&quot;font-size: 9px;&quot;&gt;MSK - UUS&lt;/font&gt;&lt;/div&gt;&lt;div style=&quot;font-size: 9px;&quot;&gt;&lt;font style=&quot;font-size: 9px;&quot;&gt;04-11-2024 18:50&lt;/font&gt;&lt;/div&gt;&lt;div style=&quot;font-size: 9px;&quot;&gt;&lt;font style=&quot;font-size: 9px;&quot;&gt;UUS - MSK&lt;/font&gt;&lt;/div&gt;" style="rounded=1;whiteSpace=wrap;html=1;fontSize=10;fillColor=#f8cecc;strokeColor=#b85450;" vertex="1" parent="1">
          <mxGeometry x="427.5" y="110" width="105" height="80" as="geometry" />
        </mxCell>
        <mxCell id="W9a4rOh1Q9RHWRytVCQV-42" value="&lt;div style=&quot;font-size: 10px;&quot;&gt;&lt;b&gt;Ереван&lt;/b&gt;&lt;/div&gt;&lt;div style=&quot;font-size: 10px;&quot;&gt;&lt;b&gt;30031 руб.&lt;/b&gt;&lt;/div&gt;&lt;div style=&quot;font-size: 10px;&quot;&gt;26-10-2024 21:40 MSK - EVN&lt;/div&gt;&lt;div style=&quot;font-size: 10px;&quot;&gt;04-11-2024 08:00&lt;/div&gt;&lt;div style=&quot;font-size: 10px;&quot;&gt;EVN - MSK&lt;/div&gt;" style="rounded=1;whiteSpace=wrap;html=1;fontSize=10;" vertex="1" parent="1">
          <mxGeometry x="427.5" y="195" width="105" height="80" as="geometry" />
        </mxCell>
        <mxCell id="W9a4rOh1Q9RHWRytVCQV-43" value="" style="rounded=1;whiteSpace=wrap;html=1;" vertex="1" parent="1">
          <mxGeometry x="610" y="40" width="120" height="250" as="geometry" />
        </mxCell>
        <mxCell id="W9a4rOh1Q9RHWRytVCQV-44" value="назад" style="text;html=1;align=center;verticalAlign=middle;resizable=0;points=[];autosize=1;strokeColor=none;fillColor=none;fontColor=#3333FF;" vertex="1" parent="1">
          <mxGeometry x="600" y="40" width="60" height="30" as="geometry" />
        </mxCell>
        <mxCell id="W9a4rOh1Q9RHWRytVCQV-45" value="Данные билета:" style="rounded=1;whiteSpace=wrap;html=1;fontSize=11;" vertex="1" parent="1">
          <mxGeometry x="617.5" y="66" width="105" height="24" as="geometry" />
        </mxCell>
        <mxCell id="W9a4rOh1Q9RHWRytVCQV-46" value="&lt;b&gt;Москва - Южно-Сахалинск&lt;/b&gt;&lt;div style=&quot;font-size: 10px;&quot;&gt;&lt;b&gt;12030 руб.&lt;/b&gt;&lt;/div&gt;&lt;div style=&quot;font-size: 9px;&quot;&gt;&lt;font style=&quot;font-size: 9px;&quot;&gt;26-10-2024 10:05&amp;nbsp;&lt;/font&gt;&lt;/div&gt;&lt;div style=&quot;font-size: 9px;&quot;&gt;&lt;font style=&quot;font-size: 9px;&quot;&gt;MSK - UUS&lt;/font&gt;&lt;/div&gt;" style="rounded=1;whiteSpace=wrap;html=1;fontSize=10;" vertex="1" parent="1">
          <mxGeometry x="617.5" y="96" width="105" height="64" as="geometry" />
        </mxCell>
        <mxCell id="W9a4rOh1Q9RHWRytVCQV-47" value="&lt;br&gt;&lt;b style=&quot;forced-color-adjust: none; color: rgb(0, 0, 0); font-family: Helvetica; font-size: 10px; font-style: normal; font-variant-ligatures: normal; font-variant-caps: normal; letter-spacing: normal; orphans: 2; text-align: center; text-indent: 0px; text-transform: none; widows: 2; word-spacing: 0px; -webkit-text-stroke-width: 0px; white-space: normal; background-color: rgb(251, 251, 251); text-decoration-thickness: initial; text-decoration-style: initial; text-decoration-color: initial;&quot;&gt;Южно-Сахалинск - Москва&lt;/b&gt;&lt;div style=&quot;forced-color-adjust: none; color: rgb(0, 0, 0); font-family: Helvetica; font-size: 10px; font-style: normal; font-variant-ligatures: normal; font-variant-caps: normal; font-weight: 400; letter-spacing: normal; orphans: 2; text-align: center; text-indent: 0px; text-transform: none; widows: 2; word-spacing: 0px; -webkit-text-stroke-width: 0px; white-space: normal; background-color: rgb(251, 251, 251); text-decoration-thickness: initial; text-decoration-style: initial; text-decoration-color: initial;&quot;&gt;&lt;b style=&quot;forced-color-adjust: none;&quot;&gt;13640 руб.&lt;/b&gt;&lt;/div&gt;&lt;div style=&quot;forced-color-adjust: none; color: rgb(0, 0, 0); font-family: Helvetica; font-style: normal; font-variant-ligatures: normal; font-variant-caps: normal; font-weight: 400; letter-spacing: normal; orphans: 2; text-align: center; text-indent: 0px; text-transform: none; widows: 2; word-spacing: 0px; -webkit-text-stroke-width: 0px; white-space: normal; background-color: rgb(251, 251, 251); text-decoration-thickness: initial; text-decoration-style: initial; text-decoration-color: initial; font-size: 9px;&quot;&gt;&lt;font style=&quot;forced-color-adjust: none; font-size: 9px;&quot;&gt;04-11-2024 18:50&lt;/font&gt;&lt;/div&gt;&lt;div style=&quot;forced-color-adjust: none; color: rgb(0, 0, 0); font-family: Helvetica; font-style: normal; font-variant-ligatures: normal; font-variant-caps: normal; font-weight: 400; letter-spacing: normal; orphans: 2; text-align: center; text-indent: 0px; text-transform: none; widows: 2; word-spacing: 0px; -webkit-text-stroke-width: 0px; white-space: normal; background-color: rgb(251, 251, 251); text-decoration-thickness: initial; text-decoration-style: initial; text-decoration-color: initial; font-size: 9px;&quot;&gt;&lt;font style=&quot;forced-color-adjust: none; font-size: 9px;&quot;&gt;UUS - MSK&lt;/font&gt;&lt;/div&gt;&lt;div&gt;&lt;br&gt;&lt;/div&gt;" style="rounded=1;whiteSpace=wrap;html=1;fontSize=10;" vertex="1" parent="1">
          <mxGeometry x="617.5" y="170" width="105" height="70" as="geometry" />
        </mxCell>
        <mxCell id="W9a4rOh1Q9RHWRytVCQV-48" value="" style="endArrow=classic;html=1;rounded=0;entryX=0.999;entryY=0.073;entryDx=0;entryDy=0;entryPerimeter=0;exitX=0.167;exitY=0.5;exitDx=0;exitDy=0;exitPerimeter=0;fillColor=#dae8fc;strokeColor=#6c8ebf;" edge="1" parent="1">
          <mxGeometry width="50" height="50" relative="1" as="geometry">
            <mxPoint x="610" y="53.5" as="sourcePoint" />
            <mxPoint x="540" y="56.5" as="targetPoint" />
          </mxGeometry>
        </mxCell>
        <mxCell id="W9a4rOh1Q9RHWRytVCQV-49" value="" style="endArrow=classic;html=1;rounded=0;entryX=-0.013;entryY=0.431;entryDx=0;entryDy=0;entryPerimeter=0;exitX=1;exitY=0.5;exitDx=0;exitDy=0;fillColor=#f8cecc;strokeColor=#b85450;" edge="1" parent="1" source="W9a4rOh1Q9RHWRytVCQV-41" target="W9a4rOh1Q9RHWRytVCQV-43">
          <mxGeometry width="50" height="50" relative="1" as="geometry">
            <mxPoint x="550" y="150" as="sourcePoint" />
            <mxPoint x="635" y="135.5" as="targetPoint" />
          </mxGeometry>
        </mxCell>
        <mxCell id="W9a4rOh1Q9RHWRytVCQV-50" value="Забронировать" style="rounded=1;whiteSpace=wrap;html=1;fontSize=11;" vertex="1" parent="1">
          <mxGeometry x="617.5" y="251" width="105" height="24" as="geometry" />
        </mxCell>
      </root>
    </mxGraphModel>
  </diagram>
</mxfile>
